<svg width="32" height="33" viewBox="0 0 32 33" fill="none" xmlns="http://www.w3.org/2000/svg">
<path fill-rule="evenodd" clip-rule="evenodd" d="M19.6553 24.1458C19.6553 22.9724 18.966 21.8404 17.6753 20.9591C16.0913 19.8791 13.542 19.1484 10.6607 19.1484C7.77935 19.1484 5.23002 19.8791 3.64602 20.9591C2.35535 21.8404 1.66602 22.9724 1.66602 24.1458V25.3658C1.66637 25.8431 1.85612 26.3007 2.19361 26.6382C2.5311 26.9757 2.98873 27.1654 3.46602 27.1658H17.8553C18.3326 27.1654 18.7903 26.9757 19.1278 26.6382C19.4652 26.3007 19.655 25.8431 19.6553 25.3658V24.1458Z" fill="#C2352E"/>
<path d="M10.6614 18.4947C13.4213 18.4947 15.6587 16.2573 15.6587 13.4973C15.6587 10.7374 13.4213 8.5 10.6614 8.5C7.90144 8.5 5.66406 10.7374 5.66406 13.4973C5.66406 16.2573 7.90144 18.4947 10.6614 18.4947Z" fill="#C2352E"/>
<path d="M21.3391 15.8287C24.0991 15.8287 26.3365 13.5913 26.3365 10.8313C26.3365 8.07137 24.0991 5.83398 21.3391 5.83398C18.5792 5.83398 16.3418 8.07137 16.3418 10.8313C16.3418 13.5913 18.5792 15.8287 21.3391 15.8287Z" fill="#C2352E"/>
<path fill-rule="evenodd" clip-rule="evenodd" d="M14.4531 18.2304C16.0438 18.5931 17.4131 19.1664 18.4278 19.8584C20.1451 21.0304 20.9891 22.5838 20.9891 24.1464V24.4998H28.5331C29.0104 24.4994 29.468 24.3096 29.8055 23.9722C30.143 23.6347 30.3328 23.177 30.3331 22.6998V21.4798C30.3331 20.3064 29.6438 19.1744 28.3531 18.2931C26.7691 17.2131 24.2198 16.4824 21.3385 16.4824C18.5465 16.4824 16.0745 17.1891 14.4531 18.2304Z" fill="#C2352E"/>
</svg>
