<svg width="24" height="25" viewBox="0 0 24 25" fill="none" xmlns="http://www.w3.org/2000/svg">
<g clip-path="url(#clip0_14185_6131)">
<path d="M21.2734 22.0143V21.2542C21.2734 19.8569 20.1081 18.7241 18.6706 18.7241H5.25626C3.81876 18.7241 2.65345 19.8569 2.65345 21.2542V22.0143C2.65345 23.4116 3.81876 24.5444 5.25626 24.5444H18.6706C20.1081 24.5444 21.2734 23.4116 21.2734 22.0143Z" fill="#F1AB89"/>
<path d="M15.9023 18.8442V17.684C15.9023 16.7895 15.1564 16.0645 14.2362 16.0645H9.68903C8.76886 16.0645 8.02291 16.7895 8.02291 17.684V18.8442C8.02291 19.7386 8.76886 20.4637 9.68903 20.4637H14.2362C15.1564 20.4637 15.9023 19.7386 15.9023 18.8442Z" fill="#C2352E"/>
<path d="M15.5053 2.42334H8.42574C4.76903 2.42334 1.80469 5.30482 1.80469 8.8593V12.0673C1.80469 15.6218 4.76903 18.5033 8.42574 18.5033H15.5053C19.162 18.5033 22.1263 15.6218 22.1263 12.0673V8.8593C22.1263 5.30482 19.162 2.42334 15.5053 2.42334Z" fill="#F1AB89"/>
<path d="M15.897 3.34619H8.03403C4.59366 3.34619 1.80469 6.0572 1.80469 9.40139V11.5246C1.80469 14.8688 4.59366 17.5798 8.03403 17.5798H15.897C19.3373 17.5798 22.1263 14.8688 22.1263 11.5246V9.40139C22.1263 6.0572 19.3373 3.34619 15.897 3.34619Z" fill="#F6F1E8"/>
<path d="M17.7218 5.71924H6.20537C4.43078 5.71924 2.99219 7.11761 2.99219 8.8426V12.0835C2.99219 13.8085 4.43078 15.2069 6.20537 15.2069H17.7218C19.4964 15.2069 20.935 13.8085 20.935 12.0835V8.8426C20.935 7.11761 19.4964 5.71924 17.7218 5.71924Z" fill="#C2352E"/>
<path d="M2.05857 3.34619H1.60547V11.7456H2.05857V3.34619Z" fill="#C2352E"/>
<path d="M1.8359 3.37746C2.21126 3.37746 2.51555 3.08167 2.51555 2.7168C2.51555 2.35194 2.21126 2.05615 1.8359 2.05615C1.46054 2.05615 1.15625 2.35194 1.15625 2.7168C1.15625 3.08167 1.46054 3.37746 1.8359 3.37746Z" fill="#C2352E"/>
<path d="M1.66672 8.09863H0.935644C0.416745 8.09863 -0.00390625 8.50752 -0.00390625 9.01192V12.205C-0.00390625 12.7094 0.416745 13.1182 0.935644 13.1182H1.66672C2.18562 13.1182 2.60627 12.7094 2.60627 12.205V9.01192C2.60627 8.50752 2.18562 8.09863 1.66672 8.09863Z" fill="#F1AB89"/>
<path d="M22.332 3.34619H21.8789V11.7456H22.332V3.34619Z" fill="#C2352E"/>
<path d="M22.1093 3.37746C22.4847 3.37746 22.789 3.08167 22.789 2.7168C22.789 2.35194 22.4847 2.05615 22.1093 2.05615C21.734 2.05615 21.4297 2.35194 21.4297 2.7168C21.4297 3.08167 21.734 3.37746 22.1093 3.37746Z" fill="#C2352E"/>
<path d="M23.0573 8.09863H22.3263C21.8074 8.09863 21.3867 8.50752 21.3867 9.01192V12.205C21.3867 12.7094 21.8074 13.1182 22.3263 13.1182H23.0573C23.5762 13.1182 23.9969 12.7094 23.9969 12.205V9.01192C23.9969 8.50752 23.5762 8.09863 23.0573 8.09863Z" fill="#F1AB89"/>
<path d="M15.4141 2.30014V1.32594C15.4141 0.894325 15.0541 0.544434 14.6101 0.544434L9.3164 0.544434C8.87238 0.544434 8.51242 0.894325 8.51242 1.32594V2.30014C8.51242 2.73175 8.87238 3.08164 9.3164 3.08164L14.6101 3.08164C15.0541 3.08164 15.4141 2.73175 15.4141 2.30014Z" fill="#F1AB89"/>
<path d="M7.73881 11.5936C8.61931 11.5936 9.33309 10.8997 9.33309 10.0439C9.33309 9.18797 8.61931 8.49414 7.73881 8.49414C6.85831 8.49414 6.14453 9.18797 6.14453 10.0439C6.14453 10.8997 6.85831 11.5936 7.73881 11.5936Z" fill="#F6F1E8"/>
<path d="M16.2622 11.5936C17.1427 11.5936 17.8565 10.8997 17.8565 10.0439C17.8565 9.18797 17.1427 8.49414 16.2622 8.49414C15.3818 8.49414 14.668 9.18797 14.668 10.0439C14.668 10.8997 15.3818 11.5936 16.2622 11.5936Z" fill="#F6F1E8"/>
</g>
<defs>
<clipPath id="clip0_14185_6131">
<rect width="24" height="24" fill="white" transform="translate(0 0.544434)"/>
</clipPath>
</defs>
</svg>
